<svg width="16" height="16" viewBox="0 0 16 16" fill="none" xmlns="http://www.w3.org/2000/svg">
<path d="M2.3077 15.5002C1.80257 15.5002 1.375 15.3252 1.025 14.9752C0.675 14.6252 0.5 14.1976 0.5 13.6925V11.0002H1.99997V13.6925C1.99997 13.7694 2.03202 13.8399 2.09612 13.904C2.16024 13.9681 2.23077 14.0002 2.3077 14.0002H13.6922C13.7692 14.0002 13.8397 13.9681 13.9038 13.904C13.9679 13.8399 14 13.7694 14 13.6925V11.0002H15.5V13.6925C15.5 14.1976 15.325 14.6252 14.975 14.9752C14.625 15.3252 14.1974 15.5002 13.6922 15.5002H2.3077ZM7.25 11.6155V3.21555L4.78462 5.68092L3.7308 4.59632L7.99997 0.327148L12.2692 4.59632L11.2153 5.68092L8.74995 3.21555V11.6155H7.25Z" fill="#FC541B"/>
</svg>
